<mxfile host="app.diagrams.net" modified="2021-02-18T04:35:14.696Z" agent="5.0 (Windows NT 10.0; Win64; x64) AppleWebKit/537.36 (KHTML, like Gecko) Chrome/88.0.4324.150 Safari/537.36 Edg/88.0.705.68" etag="01RpfGDMuZ3K4YiMdPFh" version="14.3.2" type="github">
  <diagram id="R2lEEEUBdFMjLlhIrx00" name="Page-1">
    <mxGraphModel dx="242" dy="438" grid="1" gridSize="10" guides="1" tooltips="1" connect="1" arrows="1" fold="1" page="1" pageScale="1" pageWidth="850" pageHeight="1100" math="0" shadow="0" extFonts="Permanent Marker^https://fonts.googleapis.com/css?family=Permanent+Marker">
      <root>
        <mxCell id="0" />
        <mxCell id="1" parent="0" />
        <mxCell id="Yf-zMBY5AJZI5reapGiG-27" style="edgeStyle=orthogonalEdgeStyle;rounded=0;orthogonalLoop=1;jettySize=auto;html=1;exitX=1;exitY=0.5;exitDx=0;exitDy=0;entryX=0;entryY=0.5;entryDx=0;entryDy=0;strokeWidth=3;" edge="1" parent="1" source="Yf-zMBY5AJZI5reapGiG-1" target="Yf-zMBY5AJZI5reapGiG-24">
          <mxGeometry relative="1" as="geometry" />
        </mxCell>
        <mxCell id="Yf-zMBY5AJZI5reapGiG-1" value="Author" style="rounded=0;whiteSpace=wrap;html=1;" vertex="1" parent="1">
          <mxGeometry x="190" y="350" width="80" height="30" as="geometry" />
        </mxCell>
        <mxCell id="Yf-zMBY5AJZI5reapGiG-29" style="edgeStyle=orthogonalEdgeStyle;rounded=0;orthogonalLoop=1;jettySize=auto;html=1;exitX=0.5;exitY=1;exitDx=0;exitDy=0;entryX=0.5;entryY=0;entryDx=0;entryDy=0;endArrow=none;endFill=0;strokeWidth=1;" edge="1" parent="1" source="Yf-zMBY5AJZI5reapGiG-2" target="Yf-zMBY5AJZI5reapGiG-21">
          <mxGeometry relative="1" as="geometry" />
        </mxCell>
        <mxCell id="Yf-zMBY5AJZI5reapGiG-2" value="Book" style="rounded=0;whiteSpace=wrap;html=1;" vertex="1" parent="1">
          <mxGeometry x="500" y="350" width="80" height="30" as="geometry" />
        </mxCell>
        <mxCell id="Yf-zMBY5AJZI5reapGiG-31" style="edgeStyle=orthogonalEdgeStyle;rounded=0;orthogonalLoop=1;jettySize=auto;html=1;exitX=0;exitY=0.5;exitDx=0;exitDy=0;entryX=1;entryY=0.5;entryDx=0;entryDy=0;endArrow=classic;endFill=1;strokeWidth=3;" edge="1" parent="1" source="Yf-zMBY5AJZI5reapGiG-3" target="Yf-zMBY5AJZI5reapGiG-23">
          <mxGeometry relative="1" as="geometry" />
        </mxCell>
        <mxCell id="Yf-zMBY5AJZI5reapGiG-3" value="Order" style="rounded=0;whiteSpace=wrap;html=1;" vertex="1" parent="1">
          <mxGeometry x="500" y="550" width="80" height="30" as="geometry" />
        </mxCell>
        <mxCell id="Yf-zMBY5AJZI5reapGiG-32" style="edgeStyle=orthogonalEdgeStyle;rounded=0;orthogonalLoop=1;jettySize=auto;html=1;exitX=1;exitY=0.5;exitDx=0;exitDy=0;entryX=0;entryY=0.5;entryDx=0;entryDy=0;endArrow=none;endFill=0;strokeWidth=1;" edge="1" parent="1" source="Yf-zMBY5AJZI5reapGiG-4" target="Yf-zMBY5AJZI5reapGiG-23">
          <mxGeometry relative="1" as="geometry" />
        </mxCell>
        <mxCell id="Yf-zMBY5AJZI5reapGiG-4" value="Customer" style="rounded=0;whiteSpace=wrap;html=1;" vertex="1" parent="1">
          <mxGeometry x="190" y="550" width="80" height="30" as="geometry" />
        </mxCell>
        <mxCell id="Yf-zMBY5AJZI5reapGiG-34" style="edgeStyle=orthogonalEdgeStyle;rounded=0;orthogonalLoop=1;jettySize=auto;html=1;exitX=0.5;exitY=1;exitDx=0;exitDy=0;entryX=0.5;entryY=0;entryDx=0;entryDy=0;endArrow=none;endFill=0;strokeWidth=1;" edge="1" parent="1" source="Yf-zMBY5AJZI5reapGiG-5" target="Yf-zMBY5AJZI5reapGiG-1">
          <mxGeometry relative="1" as="geometry" />
        </mxCell>
        <mxCell id="Yf-zMBY5AJZI5reapGiG-5" value="&lt;u&gt;aname&lt;/u&gt;" style="ellipse;whiteSpace=wrap;html=1;dashed=1;" vertex="1" parent="1">
          <mxGeometry x="200" y="300" width="60" height="30" as="geometry" />
        </mxCell>
        <mxCell id="Yf-zMBY5AJZI5reapGiG-35" style="rounded=0;orthogonalLoop=1;jettySize=auto;html=1;exitX=1;exitY=1;exitDx=0;exitDy=0;entryX=0;entryY=0;entryDx=0;entryDy=0;endArrow=none;endFill=0;strokeWidth=1;" edge="1" parent="1" source="Yf-zMBY5AJZI5reapGiG-7" target="Yf-zMBY5AJZI5reapGiG-2">
          <mxGeometry relative="1" as="geometry" />
        </mxCell>
        <mxCell id="Yf-zMBY5AJZI5reapGiG-7" value="&lt;u&gt;ISBN&lt;/u&gt;" style="ellipse;whiteSpace=wrap;html=1;" vertex="1" parent="1">
          <mxGeometry x="440" y="280" width="50" height="40" as="geometry" />
        </mxCell>
        <mxCell id="Yf-zMBY5AJZI5reapGiG-36" style="edgeStyle=none;rounded=0;orthogonalLoop=1;jettySize=auto;html=1;exitX=0.5;exitY=1;exitDx=0;exitDy=0;entryX=0.5;entryY=0;entryDx=0;entryDy=0;endArrow=none;endFill=0;strokeWidth=1;" edge="1" parent="1" source="Yf-zMBY5AJZI5reapGiG-8" target="Yf-zMBY5AJZI5reapGiG-2">
          <mxGeometry relative="1" as="geometry" />
        </mxCell>
        <mxCell id="Yf-zMBY5AJZI5reapGiG-8" value="book_title" style="ellipse;whiteSpace=wrap;html=1;" vertex="1" parent="1">
          <mxGeometry x="520" y="280" width="70" height="40" as="geometry" />
        </mxCell>
        <mxCell id="Yf-zMBY5AJZI5reapGiG-38" style="edgeStyle=none;rounded=0;orthogonalLoop=1;jettySize=auto;html=1;exitX=0;exitY=0.5;exitDx=0;exitDy=0;entryX=1;entryY=0.5;entryDx=0;entryDy=0;endArrow=none;endFill=0;strokeWidth=1;" edge="1" parent="1" source="Yf-zMBY5AJZI5reapGiG-9" target="Yf-zMBY5AJZI5reapGiG-2">
          <mxGeometry relative="1" as="geometry" />
        </mxCell>
        <mxCell id="Yf-zMBY5AJZI5reapGiG-9" value="unit_price" style="ellipse;whiteSpace=wrap;html=1;" vertex="1" parent="1">
          <mxGeometry x="630" y="360" width="70" height="40" as="geometry" />
        </mxCell>
        <mxCell id="Yf-zMBY5AJZI5reapGiG-37" style="edgeStyle=none;rounded=0;orthogonalLoop=1;jettySize=auto;html=1;exitX=0;exitY=0.5;exitDx=0;exitDy=0;entryX=1;entryY=0;entryDx=0;entryDy=0;endArrow=none;endFill=0;strokeWidth=1;" edge="1" parent="1" source="Yf-zMBY5AJZI5reapGiG-10" target="Yf-zMBY5AJZI5reapGiG-2">
          <mxGeometry relative="1" as="geometry" />
        </mxCell>
        <mxCell id="Yf-zMBY5AJZI5reapGiG-10" value="no_of_copies" style="ellipse;whiteSpace=wrap;html=1;" vertex="1" parent="1">
          <mxGeometry x="620" y="300" width="90" height="40" as="geometry" />
        </mxCell>
        <mxCell id="Yf-zMBY5AJZI5reapGiG-43" style="edgeStyle=none;rounded=0;orthogonalLoop=1;jettySize=auto;html=1;exitX=0.5;exitY=0;exitDx=0;exitDy=0;endArrow=none;endFill=0;strokeWidth=1;entryX=0.5;entryY=1;entryDx=0;entryDy=0;" edge="1" parent="1" source="Yf-zMBY5AJZI5reapGiG-11" target="Yf-zMBY5AJZI5reapGiG-4">
          <mxGeometry relative="1" as="geometry">
            <mxPoint x="250" y="583" as="targetPoint" />
          </mxGeometry>
        </mxCell>
        <mxCell id="Yf-zMBY5AJZI5reapGiG-11" value="&lt;u&gt;cid&lt;/u&gt;" style="ellipse;whiteSpace=wrap;html=1;" vertex="1" parent="1">
          <mxGeometry x="230" y="610" width="40" height="40" as="geometry" />
        </mxCell>
        <mxCell id="Yf-zMBY5AJZI5reapGiG-45" style="edgeStyle=none;rounded=0;orthogonalLoop=1;jettySize=auto;html=1;exitX=1;exitY=1;exitDx=0;exitDy=0;entryX=0;entryY=0.5;entryDx=0;entryDy=0;endArrow=none;endFill=0;strokeWidth=1;" edge="1" parent="1" source="Yf-zMBY5AJZI5reapGiG-12" target="Yf-zMBY5AJZI5reapGiG-4">
          <mxGeometry relative="1" as="geometry" />
        </mxCell>
        <mxCell id="Yf-zMBY5AJZI5reapGiG-12" value="cname" style="ellipse;whiteSpace=wrap;html=1;" vertex="1" parent="1">
          <mxGeometry x="120" y="530" width="60" height="40" as="geometry" />
        </mxCell>
        <mxCell id="Yf-zMBY5AJZI5reapGiG-46" style="edgeStyle=none;rounded=0;orthogonalLoop=1;jettySize=auto;html=1;exitX=0.5;exitY=1;exitDx=0;exitDy=0;entryX=0.5;entryY=0;entryDx=0;entryDy=0;endArrow=none;endFill=0;strokeWidth=1;" edge="1" parent="1" source="Yf-zMBY5AJZI5reapGiG-13" target="Yf-zMBY5AJZI5reapGiG-4">
          <mxGeometry relative="1" as="geometry" />
        </mxCell>
        <mxCell id="Yf-zMBY5AJZI5reapGiG-13" value="shipping_address" style="ellipse;whiteSpace=wrap;html=1;" vertex="1" parent="1">
          <mxGeometry x="170" y="470" width="110" height="40" as="geometry" />
        </mxCell>
        <mxCell id="Yf-zMBY5AJZI5reapGiG-44" style="edgeStyle=none;rounded=0;orthogonalLoop=1;jettySize=auto;html=1;exitX=1;exitY=0;exitDx=0;exitDy=0;entryX=0.25;entryY=1;entryDx=0;entryDy=0;endArrow=none;endFill=0;strokeWidth=1;" edge="1" parent="1" source="Yf-zMBY5AJZI5reapGiG-15" target="Yf-zMBY5AJZI5reapGiG-4">
          <mxGeometry relative="1" as="geometry" />
        </mxCell>
        <mxCell id="Yf-zMBY5AJZI5reapGiG-15" value="credit_card_no" style="ellipse;whiteSpace=wrap;html=1;" vertex="1" parent="1">
          <mxGeometry x="120" y="600" width="90" height="40" as="geometry" />
        </mxCell>
        <mxCell id="Yf-zMBY5AJZI5reapGiG-41" style="edgeStyle=none;rounded=0;orthogonalLoop=1;jettySize=auto;html=1;exitX=0.5;exitY=0;exitDx=0;exitDy=0;entryX=0.5;entryY=1;entryDx=0;entryDy=0;endArrow=none;endFill=0;strokeWidth=1;" edge="1" parent="1" source="Yf-zMBY5AJZI5reapGiG-16" target="Yf-zMBY5AJZI5reapGiG-3">
          <mxGeometry relative="1" as="geometry" />
        </mxCell>
        <mxCell id="Yf-zMBY5AJZI5reapGiG-16" value="&lt;u&gt;oid&lt;/u&gt;" style="ellipse;whiteSpace=wrap;html=1;" vertex="1" parent="1">
          <mxGeometry x="510" y="610" width="40" height="40" as="geometry" />
        </mxCell>
        <mxCell id="Yf-zMBY5AJZI5reapGiG-40" style="edgeStyle=none;rounded=0;orthogonalLoop=1;jettySize=auto;html=1;exitX=0;exitY=0;exitDx=0;exitDy=0;entryX=0.75;entryY=1;entryDx=0;entryDy=0;endArrow=none;endFill=0;strokeWidth=1;" edge="1" parent="1" source="Yf-zMBY5AJZI5reapGiG-17" target="Yf-zMBY5AJZI5reapGiG-3">
          <mxGeometry relative="1" as="geometry" />
        </mxCell>
        <mxCell id="Yf-zMBY5AJZI5reapGiG-17" value="order_date" style="ellipse;whiteSpace=wrap;html=1;" vertex="1" parent="1">
          <mxGeometry x="580" y="600" width="85" height="40" as="geometry" />
        </mxCell>
        <mxCell id="Yf-zMBY5AJZI5reapGiG-18" value="quantity" style="ellipse;whiteSpace=wrap;html=1;" vertex="1" parent="1">
          <mxGeometry x="635" y="450" width="60" height="40" as="geometry" />
        </mxCell>
        <mxCell id="Yf-zMBY5AJZI5reapGiG-42" style="edgeStyle=none;rounded=0;orthogonalLoop=1;jettySize=auto;html=1;exitX=1;exitY=0;exitDx=0;exitDy=0;entryX=0;entryY=1;entryDx=0;entryDy=0;endArrow=none;endFill=0;strokeWidth=1;" edge="1" parent="1" source="Yf-zMBY5AJZI5reapGiG-19" target="Yf-zMBY5AJZI5reapGiG-3">
          <mxGeometry relative="1" as="geometry" />
        </mxCell>
        <mxCell id="Yf-zMBY5AJZI5reapGiG-19" value="charge" style="ellipse;whiteSpace=wrap;html=1;" vertex="1" parent="1">
          <mxGeometry x="420" y="600" width="60" height="40" as="geometry" />
        </mxCell>
        <mxCell id="Yf-zMBY5AJZI5reapGiG-39" style="edgeStyle=none;rounded=0;orthogonalLoop=1;jettySize=auto;html=1;exitX=0;exitY=0.5;exitDx=0;exitDy=0;entryX=1;entryY=0.5;entryDx=0;entryDy=0;endArrow=none;endFill=0;strokeWidth=1;" edge="1" parent="1" source="Yf-zMBY5AJZI5reapGiG-20" target="Yf-zMBY5AJZI5reapGiG-3">
          <mxGeometry relative="1" as="geometry" />
        </mxCell>
        <mxCell id="Yf-zMBY5AJZI5reapGiG-20" value="shipping_status" style="ellipse;whiteSpace=wrap;html=1;" vertex="1" parent="1">
          <mxGeometry x="620" y="545" width="100" height="40" as="geometry" />
        </mxCell>
        <mxCell id="Yf-zMBY5AJZI5reapGiG-30" style="edgeStyle=orthogonalEdgeStyle;rounded=0;orthogonalLoop=1;jettySize=auto;html=1;exitX=0.5;exitY=1;exitDx=0;exitDy=0;entryX=0.5;entryY=0;entryDx=0;entryDy=0;endArrow=none;endFill=0;strokeWidth=3;" edge="1" parent="1" source="Yf-zMBY5AJZI5reapGiG-21" target="Yf-zMBY5AJZI5reapGiG-3">
          <mxGeometry relative="1" as="geometry" />
        </mxCell>
        <mxCell id="Yf-zMBY5AJZI5reapGiG-33" style="edgeStyle=orthogonalEdgeStyle;rounded=0;orthogonalLoop=1;jettySize=auto;html=1;exitX=1;exitY=0.5;exitDx=0;exitDy=0;entryX=0;entryY=0.5;entryDx=0;entryDy=0;endArrow=none;endFill=0;strokeWidth=1;" edge="1" parent="1" source="Yf-zMBY5AJZI5reapGiG-21" target="Yf-zMBY5AJZI5reapGiG-18">
          <mxGeometry relative="1" as="geometry" />
        </mxCell>
        <mxCell id="Yf-zMBY5AJZI5reapGiG-21" value="include" style="rhombus;whiteSpace=wrap;html=1;" vertex="1" parent="1">
          <mxGeometry x="510" y="450" width="60" height="40" as="geometry" />
        </mxCell>
        <mxCell id="Yf-zMBY5AJZI5reapGiG-23" value="place" style="rhombus;whiteSpace=wrap;html=1;" vertex="1" parent="1">
          <mxGeometry x="360" y="545" width="60" height="40" as="geometry" />
        </mxCell>
        <mxCell id="Yf-zMBY5AJZI5reapGiG-28" style="edgeStyle=orthogonalEdgeStyle;rounded=0;orthogonalLoop=1;jettySize=auto;html=1;exitX=1;exitY=0.5;exitDx=0;exitDy=0;entryX=0;entryY=0.5;entryDx=0;entryDy=0;strokeWidth=3;endArrow=none;endFill=0;" edge="1" parent="1" source="Yf-zMBY5AJZI5reapGiG-24" target="Yf-zMBY5AJZI5reapGiG-2">
          <mxGeometry relative="1" as="geometry" />
        </mxCell>
        <mxCell id="Yf-zMBY5AJZI5reapGiG-24" value="write" style="rhombus;whiteSpace=wrap;html=1;strokeWidth=3;" vertex="1" parent="1">
          <mxGeometry x="360" y="345" width="60" height="40" as="geometry" />
        </mxCell>
      </root>
    </mxGraphModel>
  </diagram>
</mxfile>
